<svg width="66" height="53" viewBox="0 0 66 53" fill="none" xmlns="http://www.w3.org/2000/svg">
<path fill-rule="evenodd" clip-rule="evenodd" d="M26.5811 18.9082C30.3928 21.6398 36.502 18.707 38.9054 23.461C39.5407 24.7209 39.6784 26.4468 39.1066 27.8179C38.8737 28.3685 38.5349 28.8608 38.069 29.2367C37.8625 29.4008 37.6349 29.549 37.3808 29.6761C34.2468 31.2325 30.9751 29.0567 29.244 26.4256C27.6505 24.0009 26.957 20.9781 26.5811 18.9082ZM53.5273 0.310547H4.42598C2.3137 0.310547 0.582581 2.04167 0.582581 4.15395V45.3303C0.582581 47.4425 2.3137 49.1737 4.42598 49.1737H42.733L39.4137 46.3467H4.35187C4.05541 46.3467 3.79601 46.2355 3.60013 46.0343C3.40425 45.8385 3.28779 45.5738 3.28779 45.2826V11.0731H3.2719H54.512V26.7803L57.3707 29.099V4.15395C57.3707 2.04167 55.6396 0.310547 53.5273 0.310547ZM8.0841 4.63041C7.0359 4.63041 6.18357 5.48273 6.18357 6.53093C6.18357 7.57913 7.0359 8.42616 8.0841 8.42616C9.1323 8.42616 9.98463 7.57384 9.98463 6.53093C9.98463 5.48273 9.1323 4.63041 8.0841 4.63041ZM20.9537 4.63041C19.9055 4.63041 19.0532 5.48273 19.0532 6.53093C19.0532 7.57913 19.9002 8.42616 20.9537 8.42616C22.0019 8.42616 22.8542 7.57384 22.8542 6.53093C22.8542 5.48273 22.0019 4.63041 20.9537 4.63041ZM14.5215 4.63041C13.4733 4.63041 12.621 5.48273 12.621 6.53093C12.621 7.57913 13.4733 8.42616 14.5215 8.42616C15.5697 8.42616 16.4221 7.57384 16.4221 6.53093C16.4168 5.48273 15.5697 4.63041 14.5215 4.63041ZM45.9146 39.7716C48.0375 38.0775 49.6839 36.1241 50.8062 33.8847L64.4646 48.2896C65.4969 49.2637 66.0793 50.0948 65.2164 51.5877C64.7875 52.0271 64.3323 52.2653 63.8505 52.2971C63.3741 52.3288 62.8711 52.1594 62.347 51.7783L45.9146 39.7716ZM38.7096 31.4125C39.6307 30.9201 40.8907 29.7025 41.1924 28.3737L49.7422 33.0642C48.5087 35.5206 46.9364 37.6223 44.7817 39.1152C42.5318 36.0976 41.2718 34.2765 38.7096 31.4125Z" fill="#fff7d6"/>/
</svg>
